<svg xmlns="http://www.w3.org/2000/svg" width="256" height="256" viewBox="0 0 100 100"><path d="M19.48 77.36L19.48 77.36Q14.36 77.36 10.44 75.60Q6.52 73.84 4.36 69.76Q2.20 65.68 2.20 58.80L2.20 58.80Q2.20 52 4.52 47.32Q6.84 42.64 10.96 40.24Q15.08 37.84 20.28 37.84L20.28 37.84Q23.72 37.84 26.40 38.64Q29.08 39.44 31.56 41.12L31.56 41.12L31.56 22.64L40.28 22.64L40.28 76.56L32.84 76.56L32.28 72.80Q29.72 75.12 26.68 76.24Q23.64 77.36 19.48 77.36ZM21.80 70.80L21.80 70.80Q27.64 70.80 31.56 66.80L31.56 66.80L31.56 47.84Q27.80 44.48 22.12 44.48L22.12 44.48Q16.60 44.48 13.80 48.16Q11.00 51.84 11.00 58.88L11.00 58.88Q11.00 65.68 13.60 68.24Q16.20 70.80 21.80 70.80ZM57.88 76.56L48.84 76.56L68.52 25.04L78.28 25.04L97.80 76.56L88.84 76.56L83.72 63.28L63 63.28L57.88 76.56ZM73.32 32.96L64.36 56.56L82.28 56.56L73.32 32.96Z" fill="#fff" data-darkreader-inline-fill="" style="--darkreader-inline-fill: #181a1b;"></path></svg>